<?xml version="1.0" encoding="UTF-8"?>
<svg version="1.1" viewBox="0 0 24 24" xmlns="http://www.w3.org/2000/svg">
 <rect x="7.151e-8" y="7.151e-8" width="24" height="24" ry="3.2408" fill="#43a047" stroke-miterlimit="2" stroke-width="3.3363"/>
 <g transform="matrix(.99112 0 0 .99112 -.1555 -.36799)" fill="#fff">
  <path d="m14.963 11.601a1.1793 1.1793 0 0 1-1.1793-1.1793 1.1793 1.1793 0 0 1 1.1793-1.1793 1.1793 1.1793 0 0 1 1.1793 1.1793 1.1793 1.1793 0 0 1-1.1793 1.1793m-2.3585-3.1447a1.1793 1.1793 0 0 1-1.1793-1.1793 1.1793 1.1793 0 0 1 1.1793-1.1793 1.1793 1.1793 0 0 1 1.1793 1.1793 1.1793 1.1793 0 0 1-1.1793 1.1793m-3.9309 0a1.1793 1.1793 0 0 1-1.1793-1.1793 1.1793 1.1793 0 0 1 1.1793-1.1793 1.1793 1.1793 0 0 1 1.1793 1.1793 1.1793 1.1793 0 0 1-1.1793 1.1793m-2.3585 3.1447a1.1793 1.1793 0 0 1-1.1793-1.1793 1.1793 1.1793 0 0 1 1.1793-1.1793 1.1793 1.1793 0 0 1 1.1793 1.1793 1.1793 1.1793 0 0 1-1.1793 1.1793m4.324-7.0756a7.0756 7.0756 0 0 0-7.0756 7.0756 7.0756 7.0756 0 0 0 7.0756 7.0756 1.1793 1.1793 0 0 0 1.1793-1.1793c0-0.30661-0.11793-0.58177-0.30661-0.78618-0.18082-0.21227-0.29875-0.48743-0.29875-0.78618a1.1793 1.1793 0 0 1 1.1793-1.1793h1.3915a3.9309 3.9309 0 0 0 3.9309-3.9309c0-3.4749-3.1683-6.2894-7.0756-6.2894z" stroke-width=".78618"/>
  <path d="m19.805 14.272-3.5898 3.5898-1.5898-1.5898-1.1602 1.1602 2.75 3 4.75-4.75z"/>
 </g>
</svg>
