<?xml version="1.0" encoding="UTF-8"?>
<svg version="1.1" viewBox="0 0 24 24" xmlns="http://www.w3.org/2000/svg">
 <circle cx="12" cy="12" r="12" fill="#8bc34a" stroke-miterlimit="2" stroke-width="3.2943"/>
 <path d="m12.425 8.5966h-1.2763v4.2543l3.6417 2.1612 0.61262-1.0295-2.978-1.7698v-3.6161m-0.42543-4.2543a7.6577 7.6577 0 0 0-7.6577 7.6577h-2.5526l3.3694 3.4289 3.4374-3.4289h-2.5526a5.956 5.956 0 0 1 5.956-5.956 5.956 5.956 0 0 1 5.956 5.956 5.956 5.956 0 0 1-5.956 5.956c-1.6421 0-3.1311-0.67218-4.2032-1.7528l-1.2082 1.2082c1.3869 1.3954 3.2843 2.2463 5.4114 2.2463a7.6577 7.6577 0 0 0 7.6577-7.6577 7.6577 7.6577 0 0 0-7.6577-7.6577" fill="#f1f8e9" stroke-width=".85085"/>
</svg>
